<svg width="22" height="22" viewBox="0 0 22 22" fill="none" xmlns="http://www.w3.org/2000/svg">
<path d="M19.9375 3.4375H2.0625C1.68223 3.4375 1.375 3.74473 1.375 4.125V17.875C1.375 18.2553 1.68223 18.5625 2.0625 18.5625H19.9375C20.3178 18.5625 20.625 18.2553 20.625 17.875V4.125C20.625 3.74473 20.3178 3.4375 19.9375 3.4375ZM19.0781 5.81797V17.0156H2.92188V5.81797L2.32891 5.35605L3.17324 4.27109L4.09277 4.98652H17.9094L18.8289 4.27109L19.6732 5.35605L19.0781 5.81797ZM17.9094 4.98438L11 10.3555L4.09062 4.98438L3.17109 4.26895L2.32676 5.35391L2.91973 5.81582L10.2588 11.5221C10.4698 11.686 10.7295 11.7751 10.9968 11.7751C11.264 11.7751 11.5237 11.686 11.7348 11.5221L19.0781 5.81797L19.6711 5.35605L18.8268 4.27109L17.9094 4.98438Z" fill="#202020"/>
</svg>
