<svg width="7" height="13" viewBox="0 0 7 13" fill="none" xmlns="http://www.w3.org/2000/svg">
<path d="M2.42259 8.72727V8.65909C2.43016 7.93561 2.50592 7.35985 2.64986 6.93182C2.7938 6.50379 2.99834 6.1572 3.26349 5.89205C3.52865 5.62689 3.84683 5.38258 4.21804 5.15909C4.44152 5.02273 4.64228 4.86174 4.82031 4.67614C4.99834 4.48674 5.13849 4.26894 5.24077 4.02273C5.34683 3.77652 5.39986 3.50379 5.39986 3.20455C5.39986 2.83333 5.31274 2.51136 5.13849 2.23864C4.96425 1.96591 4.7313 1.75568 4.43963 1.60795C4.14796 1.46023 3.8241 1.38636 3.46804 1.38636C3.15743 1.38636 2.85819 1.45076 2.57031 1.57955C2.28243 1.70833 2.0419 1.91098 1.84872 2.1875C1.65554 2.46401 1.5438 2.82576 1.51349 3.27273H0.0816761C0.111979 2.62879 0.278646 2.07765 0.581676 1.61932C0.888494 1.16098 1.2919 0.810606 1.7919 0.568181C2.29569 0.325757 2.8544 0.204545 3.46804 0.204545C4.13471 0.204545 4.71425 0.337121 5.20668 0.602272C5.70289 0.867424 6.08546 1.23106 6.3544 1.69318C6.62713 2.1553 6.76349 2.68182 6.76349 3.27273C6.76349 3.68939 6.6991 4.06629 6.57031 4.40341C6.44531 4.74053 6.26349 5.04167 6.02486 5.30682C5.79001 5.57197 5.50592 5.80682 5.17259 6.01136C4.83925 6.2197 4.57221 6.43939 4.37145 6.67045C4.17069 6.89773 4.02486 7.16856 3.93395 7.48295C3.84304 7.79735 3.7938 8.18939 3.78622 8.65909V8.72727H2.42259ZM3.14986 12.0909C2.86955 12.0909 2.62902 11.9905 2.42827 11.7898C2.22751 11.589 2.12713 11.3485 2.12713 11.0682C2.12713 10.7879 2.22751 10.5473 2.42827 10.3466C2.62902 10.1458 2.86955 10.0455 3.14986 10.0455C3.43016 10.0455 3.67069 10.1458 3.87145 10.3466C4.07221 10.5473 4.17259 10.7879 4.17259 11.0682C4.17259 11.2538 4.12524 11.4242 4.03054 11.5795C3.93963 11.7348 3.81652 11.8598 3.66122 11.9545C3.50971 12.0455 3.33925 12.0909 3.14986 12.0909Z" fill="white"/>
</svg>
