<svg width="22" height="24" viewBox="0 0 22 24" fill="none" xmlns="http://www.w3.org/2000/svg">
<path d="M11.0001 10.4307C11.7253 10.4307 12.4342 10.1961 13.0372 9.75654C13.6402 9.31701 14.1101 8.6923 14.3876 7.96139C14.6652 7.23049 14.7378 6.42622 14.5963 5.6503C14.4548 4.87437 14.1056 4.16164 13.5928 3.60223C13.08 3.04282 12.4267 2.66187 11.7154 2.50753C11.0041 2.35319 10.2669 2.43239 9.59694 2.73514C8.92691 3.03789 8.35426 3.55059 7.95136 4.20839C7.54846 4.86618 7.33341 5.63953 7.33341 6.43067C7.33453 7.49116 7.7212 8.50787 8.40859 9.25775C9.09598 10.0076 10.028 10.4295 11.0001 10.4307ZM11.0001 4.43067C11.3627 4.43067 11.7171 4.54797 12.0186 4.76772C12.3201 4.98748 12.5551 5.29985 12.6939 5.6653C12.8326 6.03075 12.8689 6.43289 12.7982 6.82085C12.7274 7.20881 12.5528 7.56518 12.2964 7.84487C12.04 8.12458 11.7133 8.31507 11.3578 8.39224C11.0021 8.46941 10.6335 8.42979 10.2985 8.27842C9.96351 8.12704 9.67715 7.8707 9.47576 7.5418C9.27427 7.2129 9.16675 6.82622 9.16675 6.43067C9.1673 5.90041 9.36062 5.39207 9.70437 5.01713C10.048 4.64219 10.5141 4.43128 11.0001 4.43067ZM18.0648 15.2044C16.6517 13.6596 14.8439 12.6163 12.8781 12.2112L11.0001 14.7433L9.12201 12.2116C7.15626 12.6167 5.34846 13.66 3.93533 15.2048L3.66675 15.4978V21.0007H18.3334V15.4978L18.0648 15.2044ZM16.5001 19.0007H5.50008V16.3391C6.34591 15.4947 7.3466 14.8562 8.4358 14.4658L9.57494 16.0014L11.0001 17.9226L12.4252 16.0015L13.5644 14.4658C14.6535 14.8562 15.6543 15.4947 16.5001 16.3391V19.0007Z" fill="#202020"/>
</svg>
