<svg width="22" height="24" viewBox="0 0 22 24" fill="none" xmlns="http://www.w3.org/2000/svg">
<path d="M14.2083 2H7.79167C7.18388 2 6.60098 2.26339 6.17121 2.73223C5.74144 3.20107 5.5 3.83696 5.5 4.5V19.5C5.5 20.163 5.74144 20.7989 6.17121 21.2678C6.60098 21.7366 7.18388 22 7.79167 22H14.2083C14.8161 22 15.399 21.7366 15.8288 21.2678C16.2585 20.7989 16.5 20.163 16.5 19.5V4.5C16.5 3.83696 16.2585 3.20107 15.8288 2.73223C15.399 2.26339 14.8161 2 14.2083 2ZM14.6667 19.5C14.6665 19.6326 14.6182 19.7596 14.5323 19.8534C14.4463 19.9471 14.3299 19.9998 14.2083 20H7.79167C7.67015 19.9998 7.55366 19.9471 7.46773 19.8534C7.38182 19.7596 7.33348 19.6326 7.33333 19.5V4.5C7.33348 4.36744 7.38182 4.24036 7.46773 4.14662C7.55366 4.05289 7.67015 4.00016 7.79167 4H14.2083C14.3299 4.00016 14.4463 4.05289 14.5323 4.14662C14.6182 4.24036 14.6665 4.36744 14.6667 4.5V19.5ZM11 17C10.8187 17 10.6415 17.0586 10.4907 17.1685C10.34 17.2784 10.2225 17.4346 10.1531 17.6173C10.0837 17.8 10.0656 18.0011 10.1009 18.1951C10.1363 18.3891 10.2236 18.5673 10.3518 18.7071C10.48 18.847 10.6433 18.9422 10.8212 18.9808C10.999 19.0194 11.1833 18.9996 11.3508 18.9239C11.5183 18.8482 11.6615 18.72 11.7622 18.5556C11.863 18.3911 11.9167 18.1978 11.9167 18C11.9167 17.7348 11.8201 17.4804 11.6482 17.2929C11.4763 17.1054 11.2431 17 11 17Z" fill="#202020"/>
</svg>
